# xmcd CD database file
#
# Track frame offsets:
#	150
#	3378
#	10749
#	15053
#	21130
#	34216
#	37499
#	42187
#	44619
#	46286
#	72940
#	81546
#	86593
#	88023
#	90841
#	115924
#	118891
#	127738
#	153907
#	156370
#	163650
#	167753
#	172028
#	175138
#	187272
#	192127
#	199115
#	214191
#	229559
#	246684
#
# Disc length: 3486 seconds
#
# Revision: 0
# Processed by: cddbd v1.5.2PL0 Copyright (c) Steve Scherf et al.
# Submitted via: CDex 1.70beta2
#
DISCID=930d9c1e
DTITLE=Bruce Eisenbeil - Inner Constellation
DYEAR=2007
DGENRE=Jazz
TTITLE0=01-Autumn Light
TTITLE1=02-Elastic Horizon
TTITLE2=03-Enter Fresh Juicy
TTITLE3=04-Three Uninvited Guests
TTITLE4=05-Clinging Fire
TTITLE5=06-Being Drawn
TTITLE6=07-Phat On The Runway
TTITLE7=08-Effigy
TTITLE8=09-Totem
TTITLE9=10-Mask In Profile
TTITLE10=11-Triple Astral Texture
TTITLE11=12-Walkabout
TTITLE12=13-Transformation
TTITLE13=14-Death Once Dead, No Dying Then
TTITLE14=15-Dream Breath
TTITLE15=16-Ritcher Smears
TTITLE16=17-Spiral Blue
TTITLE17=18-Wormhole Thief
TTITLE18=19-Red Pepper Pods, Add Wings To Them
TTITLE19=20-Dragonfly
TTITLE20=21-Eucalyptus
TTITLE21=22-Spice Enters The Groovy Night
TTITLE22=23-Autums Clouds
TTITLE23=24-Burning Nest
TTITLE24=25-Keeping Still Mountain
TTITLE25=26-Inner Constellation
TTITLE26=27-Sonic Ocean
TTITLE27=28-Rain In The Face
TTITLE28=29-Cues To The Vagabond
TTITLE29=30-Receding Storm
EXTD=YEAR: 2007
EXTT0=
EXTT1=
EXTT2=
EXTT3=
EXTT4=
EXTT5=
EXTT6=
EXTT7=
EXTT8=
EXTT9=
EXTT10=
EXTT11=
EXTT12=
EXTT13=
EXTT14=
EXTT15=
EXTT16=
EXTT17=
EXTT18=
EXTT19=
EXTT20=
EXTT21=
EXTT22=
EXTT23=
EXTT24=
EXTT25=
EXTT26=
EXTT27=
EXTT28=
EXTT29=
PLAYORDER=
